<svg xmlns="http://www.w3.org/2000/svg" viewBox="0 0 512 512">
<path fill="#fff" d="M480,0H32C14.327,0,0,14.327,0,32v448c0,17.673,14.327,32,32,32h448c17.673,0,32-14.327,32-32V32
	C512,14.327,497.673,0,480,0z M467,168.779l-16.261,3.317c-6.001,1.27-10.978,3.791-14.77,7.585
	c-3.792,3.789-7.307,11.2-10.468,22.577L373.322,377h-68.251l-45.51-174h-1.906l-43.126,174h-75.85L83.207,198.94
	c-1.888-5.688-3.712-10.106-5.446-13.422c-1.735-3.318-3.79-5.801-6.159-7.539c-2.371-1.733-5.615-3.064-9.72-4.011l-16.593-3.604
	L50.033,135H183v33.779l-19.084,2.841c-4.426,0.949-7.169,3.011-8.116,6.165c-0.946,3.162-0.343,9.012,1.868,17.227L189.402,308
	h2.365l43.145-173h77.738l44.567,172h1.888l30.81-108.928c2.535-8.537,2.765-14.567,0.715-18.206
	c-2.059-3.625-6.088-6.056-12.087-7.321l-15.645-3.602L368.111,135H467V168.779z"/>
</svg>

